# xmcd CD database file
#
# Track frame offsets:
#	150
#	22641
#	33386
#	55204
#	68407
#	83845
#	92165
#	108882
#	124982
#	138681
#	153488
#	165070
#	178325
#
# Disc length: 2476 seconds
#
# Revision: 0
# Processed by: cddbd v1.5.1PL0 Copyright (c) Steve Scherf et al.
# Submitted via: CDex 1.51
#
DISCID=9d09aa0d
DTITLE=Jazz Connection - Jazz Connection
DYEAR=1999
DGENRE=Jazz
TTITLE0=Summertime
TTITLE1=One Note Samba
TTITLE2=Autumn Leaves
TTITLE3=Cantaloupe
TTITLE4=My Funny Valentine
TTITLE5=Fly me to the moon
TTITLE6=Well you needn´t
TTITLE7=Days of wine and roses
TTITLE8=Moanin´
TTITLE9=Ipanema
TTITLE10=Route 66
TTITLE11=Somewhere over the rainbow
TTITLE12=7 Day Blues
EXTD=YEAR: 1999
EXTT0=
EXTT1=
EXTT2=
EXTT3=
EXTT4=
EXTT5=
EXTT6=
EXTT7=
EXTT8=
EXTT9=
EXTT10=
EXTT11=
EXTT12=
PLAYORDER=
